<?xml version="1.0" encoding="utf-8"?><svg xmlns="http://www.w3.org/2000/svg" xmlns:xlink="http://www.w3.org/1999/xlink"><symbol viewBox="0 0 15 15" id="account" xmlns="http://www.w3.org/2000/svg"><path fill-rule="evenodd" clip-rule="evenodd" d="M7.51 14l-5.748-.001c-.592 0-.762-.164-.762-.733 0-1.096.53-1.904 1.528-2.35.605-.27 1.288-.378 1.937-.555.153-.042.315-.055.465-.102.862-.272.846-.168.605-1.077-.135-.51-.516-.98-.861-1.411-.395-.493-.703-1.002-.777-1.628-.01-.077-.045-.17-.015-.229.383-.724.072-1.5.185-2.249.09-.59.288-1.091.7-1.527a.722.722 0 0 0 .177-.396c.044-.424.249-.68.688-.713 1.358-.101 2.676.051 3.926.624.778.356 1.223.947 1.341 1.757.064.432.03.876.062 1.313.022.313.067.626.123.936.126.687-.12 1.274-.513 1.817-.168.231-.376.436-.564.654a2.71 2.71 0 0 0-.645 1.519c-.027.242.032.41.288.472.437.107.872.223 1.313.31.845.163 1.647.405 2.288 1.008.624.587.824 1.309.725 2.126-.04.335-.283.436-.599.435-.957-.002-1.916 0-2.873 0H7.51zM5.503 1.611c.228.483-.058.701-.306.966-.2.213-.414.483-.458.753-.088.544-.086 1.106-.077 1.66.005.304.136.604-.141.872-.06.058-.056.238-.011.328.214.422.392.88.694 1.239.583.69 1.028 1.408 1.032 2.334.002.52-.083.706-.599.869a14.6 14.6 0 0 1-1.58.386c-.659.13-1.293.31-1.8.766-.481.432-.73.96-.64 1.617.093.018.144.036.196.036 3.764.003 7.528.002 11.292.008.258 0 .369-.138.307-.332-.124-.387-.233-.808-.477-1.12-.482-.62-1.23-.816-1.982-.974a22.616 22.616 0 0 1-1.69-.43c-.342-.1-.48-.347-.488-.711-.02-.94.356-1.71.995-2.38.37-.387.67-.807.74-1.345.015-.119-.026-.247-.047-.37-.04-.233-.11-.464-.12-.698-.024-.527.017-1.06-.038-1.583-.057-.554-.349-.99-.88-1.26A5.922 5.922 0 0 0 7.14 1.62c-.52-.037-1.044-.007-1.637-.007z"/></symbol><symbol viewBox="0 0 11 7" id="angle-bottom" xmlns="http://www.w3.org/2000/svg"><path d="M1 1l4.5 4.5L10 1"/></symbol><symbol viewBox="0 0 187 192" id="order" xmlns="http://www.w3.org/2000/svg"><path d="M183.057 60.495l-54.561 54.73L61.671 59.59 113.204.485l69.853 60.01z"/><path d="M186.086 87.292l-70.716 31.151-42.046-76.121 69.475-36.347 43.287 81.317z"/><path d="M145.588 125.637c17.87-31.225 7.044-71.023-24.18-88.893-31.225-17.87-71.023-7.044-88.893 24.18-17.87 31.225-7.044 71.024 24.18 88.893 31.225 17.87 71.023 7.044 88.893-24.18z"/><path d="M38.85 166.127l32.58-72.988-4.059-1.956-37.02 70.884a4.729 4.729 0 0 0 2.146 6.395 4.708 4.708 0 0 0 6.352-2.335z"/><path d="M88.836 87.817c5.24-10.874 3.166-22.734-4.63-26.491-7.797-3.757-18.365 2.012-23.605 12.886-5.24 10.873-3.166 22.734 4.63 26.49 7.797 3.757 18.365-2.012 23.605-12.885z"/><path opacity=".2" d="M83.597 85.491c3.812-7.912 2.865-16.272-2.117-18.672-4.981-2.4-12.11 2.068-15.923 9.98-3.812 7.911-2.864 16.271 2.117 18.671 4.982 2.4 12.11-2.067 15.923-9.979z"/><path d="M152.79 184.868l-32.623-72.966-4.186 1.724 28.122 74.86a4.727 4.727 0 0 0 6.205 2.671c2.44-1.009 3.576-3.849 2.482-6.289z"/><path d="M115.539 83.212l6.121 14.828a1.99 1.99 0 0 1-1.094 2.609 1.99 1.99 0 0 1-2.608-1.094l-6.921-16.743a1.576 1.576 0 0 0-1.556-.989 1.598 1.598 0 0 0-1.409 2.23l7.046 17.058c.358.863-.063 1.851-.904 2.188l-.652.273a1.602 1.602 0 0 1-2.104-.883l-6.962-16.848c-.463-1.136-1.935-1.41-2.798-.547a1.68 1.68 0 0 0-.357 1.85l7.004 16.975a1.476 1.476 0 0 1-.799 1.935l-.968.4a1.478 1.478 0 0 1-1.935-.799l-6.1-14.808c-.252-.61-1.115-.526-1.283.084-1.24 4.817-.82 10.706 1.557 16.469 4.606 11.169 14.829 17.522 22.822 14.24 7.992-3.302 10.748-15.018 6.141-26.187-2.503-6.037-6.646-10.685-11.19-13.146-.652-.337-1.325.273-1.051.904z"/></symbol></svg>